Coordinates
version=1
nRows=8
nColumns=63
inDegrees=yes

Units are S.I. units (second, meters, Newtons, ...)
If the header above contains a line with 'inDegrees', this indicates whether rotational values are in degrees (yes) or radians (no).

endheader
time	pelvis_tilt	pelvis_list	pelvis_rotation	pelvis_tx	pelvis_ty	pelvis_tz	hip_flexion_r	hip_adduction_r	hip_rotation_r	knee_angle_r	knee_angle_r_beta	ankle_angle_r	subtalar_angle_r	mtp_angle_r	hip_flexion_l	hip_adduction_l	hip_rotation_l	knee_angle_l	knee_angle_l_beta	ankle_angle_l	subtalar_angle_l	mtp_angle_l	L5_S1_Flex_Ext	L5_S1_Lat_Bending	L5_S1_axial_rotation	L4_L5_Flex_Ext	L4_L5_Lat_Bending	L4_L5_axial_rotation	L3_L4_Flex_Ext	L3_L4_Lat_Bending	L3_L4_axial_rotation	L2_L3_Flex_Ext	L2_L3_Lat_Bending	L2_L3_axial_rotation	L1_L2_Flex_Ext	L1_L2_Lat_Bending	L1_L2_axial_rotation	L1_T12_Flex_Ext	L1_T12_Lat_Bending	L1_T12_axial_rotation	Abs_r3	Abs_r2	Abs_r1	Abs_t1	Abs_t2	neck_flexion	neck_bending	neck_rotation	arm_flex_r	arm_add_r	arm_rot_r	elbow_flex_r	pro_sup_r	wrist_flex_r	wrist_dev_r	arm_flex_l	arm_add_l	arm_rot_l	elbow_flex_l	pro_sup_l	wrist_flex_l	wrist_dev_l
      1.50980392	     -7.07845190	     -8.18652899	     71.35295986	      0.25003117	      0.44862961	      0.91558265	      3.22807894	     -2.49743311	     -5.81065318	      4.72043083	      0.08238706	     17.53077262	     11.18647577	      0.00000000	      4.37442573	      0.56366569	    -18.31733674	      9.93822565	      0.17345476	     16.08554829	     14.46140754	      0.00000000	     -0.57596423	     -0.20173403	     -0.76775136	     -1.06962317	     -0.26830626	     -0.81573582	     -0.94625163	     -0.49049612	     -0.81573582	     -0.65826952	     -0.49049612	     -0.67178244	     -0.53484038	     -0.41137603	     -0.62379798	     -0.32910596	     -0.31248601	     -0.57581352	     -4.11405490	     -2.28205568	     -4.27000273	      0.00000000	      0.00000000	      3.33838136	     11.01883850	      3.69521974	     22.64125723	      2.92562766	     28.51401112	    138.12197712	     89.42017211	    -10.64590268	     -9.98567394	      3.46194350	    -16.08955853	     42.76813713	     55.31516325	     85.29324066	      2.82670088	      7.26041332
      1.52941176	     -6.91739271	     -8.18718807	     71.56436749	      0.25009232	      0.44883361	      0.91505207	      3.05049469	     -2.30521343	     -5.58238668	      4.52765299	      0.07902245	     17.41441836	     10.76314500	      0.00000000	      4.26941920	      0.42909359	    -18.11231856	      9.83195237	      0.17159994	     16.10308425	     14.47535618	      0.00000000	     -0.57945199	     -0.18494608	     -0.80435821	     -1.07610028	     -0.24597829	     -0.85463060	     -0.95198167	     -0.44967791	     -0.85463060	     -0.66225567	     -0.44967791	     -0.70381344	     -0.53807911	     -0.37714205	     -0.65354105	     -0.33109886	     -0.28648148	     -0.60326866	     -4.13896758	     -2.09214708	     -4.47359908	      0.00000000	      0.00000000	      3.09062292	     10.73251658	      3.79786131	     22.60549930	      2.79561786	     28.87859428	    138.27005541	     89.42467490	    -11.75872834	    -10.29157410	      3.33313348	    -16.01198044	     42.74531211	     55.18722899	     84.62741093	      2.61505636	      7.22411961
      1.54901961	     -6.81063102	     -8.17336328	     71.79344677	      0.25018409	      0.44896468	      0.91459801	      2.90633121	     -2.20346252	     -5.91527005	      4.48834670	      0.07833643	     17.31781943	     10.89756793	      0.00000000	      4.18367707	      0.33780123	    -17.95567896	      9.74428925	      0.17006993	     16.11347121	     14.57654126	      0.00000000	     -0.58154610	     -0.17546523	     -0.84050085	     -1.07998927	     -0.23336875	     -0.89303215	     -0.95542209	     -0.42662615	     -0.89303215	     -0.66464904	     -0.42662615	     -0.73543824	     -0.54002371	     -0.35780869	     -0.68290694	     -0.33229544	     -0.27179564	     -0.63037564	     -4.15392567	     -1.98489774	     -4.67461356	      0.00000000	      0.00000000	      2.98890575	     10.47066650	      3.76707728	     22.43542066	      2.74175534	     28.97834379	    138.35997192	     89.40989628	    -12.36753927	    -10.56712729	      3.25732218	    -15.97930754	     42.66829306	     55.11410867	     83.78348418	      2.70873242	      7.27495237
      1.56862745	     -6.71880969	     -8.15473943	     72.13375863	      0.25014461	      0.44906191	      0.91414989	      2.77825121	     -2.17062400	     -7.26425944	      4.58000372	      0.07993614	     17.26850390	     12.05878863	      0.00000000	      4.11072816	      0.28181800	    -17.52646933	      9.65168606	      0.16845370	     16.12867621	     14.47026575	      0.00000000	     -0.58249388	     -0.16779241	     -0.89660943	     -1.08174939	     -0.22316391	     -0.95264752	     -0.95697920	     -0.40797047	     -0.95264752	     -0.66573226	     -0.40797047	     -0.78453325	     -0.54090382	     -0.34216229	     -0.72849516	     -0.33283700	     -0.25991045	     -0.67245707	     -4.16069555	     -1.89810133	     -4.98667265	      0.00000000	      0.00000000	      3.00743034	     10.29897036	      3.71632984	     22.23139624	      2.77605386	     28.80596234	    138.37798109	     89.38387071	    -12.26300558	    -10.59774266	      3.25658945	    -15.98708298	     42.73711476	     55.04873738	     83.05275177	      2.67404662	      7.06217788
      1.58823529	     -6.68241565	     -8.10387338	     72.14754701	      0.25072747	      0.44909350	      0.91387958	      2.58893921	     -2.06688315	     -6.20421343	      4.48523076	      0.07828204	     16.77020138	     10.19942633	      0.00000000	      3.98785529	      0.23067075	    -17.68617242	      9.56825953	      0.16699763	     16.20643427	     14.72114907	      0.00000000	     -0.58339693	     -0.17127082	     -0.89189652	     -1.08342644	     -0.22779019	     -0.94764005	     -0.95846282	     -0.41642788	     -0.94764005	     -0.66676435	     -0.41642788	     -0.78040946	     -0.54174239	     -0.34925546	     -0.72466592	     -0.33335301	     -0.26529850	     -0.66892239	     -4.16714593	     -1.93744979	     -4.96046088	      0.00000000	      0.00000000	      3.08474648	     10.31003548	      3.64167862	     22.05808836	      2.90257808	     28.57016008	    138.31536444	     89.36055956	    -11.65744081	    -10.50807030	      3.27173990	    -16.05470251	     42.80019045	     55.07796192	     82.90920856	      2.69167896	      6.86584471
      1.60784314	     -6.66764290	     -8.05109780	     72.35769434	      0.25102851	      0.44920144	      0.91365044	      2.42620061	     -2.05560965	     -6.58980169	      4.49697101	      0.07848695	     16.46657947	     10.06803208	      0.00000000	      3.90789725	      0.23983499	    -17.29151720	      9.50764571	      0.16593972	     16.23106204	     14.48425886	      0.00000000	     -0.58547793	     -0.17828833	     -0.89433155	     -1.08729107	     -0.23712348	     -0.95022727	     -0.96188169	     -0.43349026	     -0.95022727	     -0.66914273	     -0.43349026	     -0.78254010	     -0.54367481	     -0.36356557	     -0.72664438	     -0.33454209	     -0.27616863	     -0.67074866	     -4.18201032	     -2.01683330	     -4.97400377	      0.00000000	      0.00000000	      3.23763193	     10.48674949	      3.30774167	     21.94391073	      2.94598370	     28.24087818	    138.35838638	     89.34784991	    -10.46681940	    -10.01055764	      3.59803480	    -16.23351074	     43.61380664	     55.06933001	     82.89752136	      2.27026648	      6.53312472
      1.62745098	     -6.60534205	     -8.04117109	     72.45821415	      0.25130115	      0.44925657	      0.91358229	      2.35908021	     -1.98949490	     -6.79016005	      4.60746761	      0.08041548	     16.17680830	      9.91805680	      0.00000000	      3.86958126	      0.16465761	    -17.13799694	      9.49535950	      0.16572529	     16.32389207	     14.47609597	      0.00000000	     -0.58523588	     -0.17602098	     -0.89009016	     -1.08684156	     -0.23410791	     -0.94572080	     -0.96148404	     -0.42797741	     -0.94572080	     -0.66886609	     -0.42797741	     -0.77882889	     -0.54345004	     -0.35894199	     -0.72319826	     -0.33440378	     -0.27265650	     -0.66756762	     -4.18028140	     -1.99118455	     -4.95041445	      0.00000000	      0.00000000	      3.46921879	     10.74833871	      3.21985473	     22.09172553	      2.90163792	     28.16349246	    138.32090031	     89.34920532	     -9.43086218	     -9.60425024	      3.80283883	    -16.30841014	     44.22218301	     55.04138491	     83.64877094	      1.53321220	      5.99842629
      1.64705882	     -6.53289839	     -8.01986891	     72.61633477	      0.25131797	      0.44932064	      0.91364805	      2.28395507	     -1.92818280	     -7.17689472	      4.71188074	      0.08223783	     15.91414711	      9.93879753	      0.00000000	      3.84071367	      0.09793043	    -16.80472607	      9.49081038	      0.16564589	     16.41127970	     14.29398328	      0.00000000	     -0.59098728	     -0.17030883	     -0.90558783	     -1.09752248	     -0.22651074	     -0.96218707	     -0.97093300	     -0.41408889	     -0.96218707	     -0.67543936	     -0.41408889	     -0.79238935	     -0.54879079	     -0.34729376	     -0.73579011	     -0.33769013	     -0.26380838	     -0.67919087	     -4.22136305	     -1.92656754	     -5.03660783	      0.00000000	      0.00000000	      3.80936715	     10.99699907	      3.26308952	     22.37389337	      2.80168159	     28.18358268	    138.24045510	     89.35043827	     -8.41512945	     -9.14087453	      3.95162342	    -16.32203591	     44.65822344	     54.99878159	     84.65288955	      0.82359087	      5.59598807
